<?xml version="1.0" encoding="utf-8"?>
<!-- Generator: Adobe Illustrator 21.1.0, SVG Export Plug-In . SVG Version: 6.00 Build 0)  -->
<svg version="1.1" baseProfile="basic" xmlns="http://www.w3.org/2000/svg" xmlns:xlink="http://www.w3.org/1999/xlink" x="0px"
	 y="0px" viewBox="0 0 141.7 141.7" xml:space="preserve">
<style type="text/css">
	.st0{fill:#91c5c2;}
	.st1{fill:#FFFFFF;}
</style>
<g id="Layer_1">
	<path class="st0" d="M141.7,19.6c0,34.1,0,68.1,0,102.6c-47.1,0-94.2,0-141.7,0C0,88.1,0,54.1,0,19.6
		C47.1,19.6,94.2,19.6,141.7,19.6z M136.9,26.3c-45.1,0-87.5,0-132,0c2.4,3.8,3.4,7.1,5.7,8.8C29.3,49.8,48.2,64.1,67,78.7
		c2.9,2.3,4.8,2.3,7.8,0c18.7-14.6,37.7-28.9,56.4-43.5C133.4,33.4,134.5,30.1,136.9,26.3z M13,115.2c38.7,0,77.3,0,114.6,0
		c-12.7-12.7-25.7-25.7-38.9-38.9c-4.5,3.4-9.4,7.6-14.8,11.1c-1.4,1-4.6,1-6.1,0c-5.5-3.6-10.6-7.8-15.5-11.6
		C39.1,89.1,26.1,102,13,115.2z M134.7,109.7c0-22.8,0-45.1,0-68.6c-13.5,10.4-26.3,20.1-38.9,29.8C109,84,121.7,96.6,134.7,109.7z
		 M6.8,109c12.9-12.8,25.6-25.5,38.7-38.5C33.1,61.1,20.3,51.3,6.8,41C6.8,64.7,6.8,87,6.8,109z"/>
</g>
<g id="Layer_2">
</g>
</svg>
