<?xml version="1.0" encoding="utf-8"?>
<!-- Generator: Adobe Illustrator 21.1.0, SVG Export Plug-In . SVG Version: 6.00 Build 0)  -->
<svg version="1.1" baseProfile="basic" xmlns="http://www.w3.org/2000/svg" xmlns:xlink="http://www.w3.org/1999/xlink" x="0px"
	 y="0px" viewBox="0 0 141.7 141.7" xml:space="preserve">
<style type="text/css">
	.st0{fill:#91c5c2;}
	.st1{fill:#FFFFFF;}
</style>
<g id="Layer_1">
	<g id="XMLID_1_">
		<g>
			<path class="st0" d="M141.7,7.8v126.1c0,4.3-3.5,7.8-7.8,7.8H97.8V86.8h18.4l2.8-21.4H97.8V51.8c0-6.2,1.7-10.4,10.6-10.4l11.3,0
				V22.2c-2-0.3-8.7-0.8-16.5-0.8c-16.3,0-27.5,10-27.5,28.3v15.8H57.2v21.4h18.5v54.9H7.8c-4.3,0-7.8-3.5-7.8-7.8V7.8
				C0,3.5,3.5,0,7.8,0h126.1C138.2,0,141.7,3.5,141.7,7.8z"/>
		</g>
	</g>
</g>
<g id="Layer_2">
</g>
</svg>
