<?xml version="1.0" encoding="utf-8"?>
<!-- Generator: Adobe Illustrator 21.1.0, SVG Export Plug-In . SVG Version: 6.00 Build 0)  -->
<svg version="1.1" baseProfile="basic" xmlns="http://www.w3.org/2000/svg" xmlns:xlink="http://www.w3.org/1999/xlink" x="0px"
	 y="0px" viewBox="0 0 141.7 141.7" xml:space="preserve">
<style type="text/css">
	.st0{fill:#91c5c2;}
	.st1{fill:#FFFFFF;}
</style>
<g id="Layer_1">
</g>
<g id="Layer_2">
	<path class="st0" d="M131.3,141.7H10.5C4.7,141.7,0,137,0,131.3V10.5C0,4.7,4.7,0,10.5,0h120.8c5.8,0,10.5,4.7,10.5,10.5v120.8
		C141.7,137,137,141.7,131.3,141.7z"/>
	<path class="st1" d="M39.7,44.6L39.7,44.6c-5.1,0-9.3-4.2-9.3-9.3v0c0-5.1,4.2-9.3,9.3-9.3h0c5.1,0,9.3,4.2,9.3,9.3v0
		C49,40.4,44.8,44.6,39.7,44.6z"/>
	<rect x="30.9" y="48.6" class="st1" width="17.8" height="62"/>
	<path class="st1" d="M109.2,62.4c-1.3-5.2-3.5-12.3-13.9-13.8c0,0-10.1-0.5-12.9,0.5c-2.2,0.8-4.8,2.5-6.9,6v-6.6H57.7v62h17.8
		V73.9c0,0,0-8,9.6-7.2c2.5,0.2,7.9,1.5,7.9,7.2v36.8h17.8C110.9,110.6,111.3,68.9,109.2,62.4z"/>
</g>
</svg>
