<?xml version="1.0" encoding="utf-8"?>
<!-- Generator: Adobe Illustrator 21.1.0, SVG Export Plug-In . SVG Version: 6.00 Build 0)  -->
<svg version="1.1" baseProfile="basic" xmlns="http://www.w3.org/2000/svg" xmlns:xlink="http://www.w3.org/1999/xlink" x="0px"
	 y="0px" viewBox="0 0 141.7 141.7" xml:space="preserve">
<style type="text/css">
	.st0{fill:#91c5c2;}
	.st1{fill:#ffffff;}
</style>
<g id="Layer_1">
	<g>
		<path class="st0" d="M106.2,71.3c0-19,0-38,0-57c0-9-4.5-14-13.4-14.1C78.2-0.1,63.6-0.1,49,0.2c-8.5,0.1-13.4,5.2-13.4,13.6
			c-0.1,38-0.1,76,0,114.1c0,8.8,5,13.7,13.9,13.7c14.4,0.1,28.8,0.1,43.2,0c9-0.1,13.5-4.9,13.5-13.9
			C106.3,108.9,106.2,90.1,106.2,71.3z M79.8,7.7c0,0.4,0,0.9,0,1.3C73.9,9,68,9,62,9c0-0.4,0-0.9,0-1.3C68,7.7,73.9,7.7,79.8,7.7z
			 M70.9,135.5c-3.5,0-6.3-2.8-6.3-6.3c0-3.5,2.8-6.3,6.3-6.3c3.5,0,6.3,2.8,6.3,6.3C77.2,132.7,74.4,135.5,70.9,135.5z M99.3,118.6
			c-18.9,0-37.4,0-56.4,0c0-33.7,0-67.4,0-101.5c18.7,0,37.3,0,56.4,0C99.3,51.2,99.3,84.8,99.3,118.6z"/>
	</g>
</g>
<g id="Layer_2">
</g>
</svg>
