<?xml version="1.0" encoding="utf-8"?>
<!-- Generator: Adobe Illustrator 21.1.0, SVG Export Plug-In . SVG Version: 6.00 Build 0)  -->
<svg version="1.1" baseProfile="basic" xmlns="http://www.w3.org/2000/svg" xmlns:xlink="http://www.w3.org/1999/xlink" x="0px"
	 y="0px" viewBox="0 0 141.7 141.7" xml:space="preserve">
<style type="text/css">
	.st0{fill:#91c5c2;}
	.st1{fill:#91c5c2;}
</style>
<g id="Layer_1">
	<g>
		<path class="st0" d="M141.7,26.9c-5.2,2.3-10.8,3.9-16.7,4.6c6-3.6,10.6-9.3,12.8-16.1c-5.6,3.3-11.8,5.8-18.5,7.1
			c-5.3-5.7-12.9-9.2-21.2-9.2c-16.1,0-29.1,13-29.1,29.1c0,2.3,0.3,4.5,0.8,6.6C45.6,47.8,24.2,36.2,9.9,18.6
			c-2.5,4.3-3.9,9.3-3.9,14.6c0,10.1,5.1,19,12.9,24.2c-4.8-0.2-9.3-1.5-13.2-3.6c0,0.1,0,0.2,0,0.4c0,14.1,10,25.8,23.3,28.5
			c-2.4,0.7-5,1-7.7,1c-1.9,0-3.7-0.2-5.5-0.5c3.7,11.6,14.4,20,27.2,20.2c-10,7.8-22.5,12.4-36.1,12.4c-2.3,0-4.7-0.1-6.9-0.4
			c12.9,8.3,28.2,13.1,44.6,13.1c53.5,0,82.7-44.3,82.7-82.7c0-1.3,0-2.5-0.1-3.8C132.9,37.9,137.8,32.7,141.7,26.9L141.7,26.9z"/>
	</g>
</g>
<g id="Layer_2">
</g>
</svg>
